<svg xmlns="http://www.w3.org/2000/svg" fill="none" viewBox="0 0 305 70"><path fill="url(#a)" d="M3.3 64c4.2 3.3 6.8 4.7 9.6 4.9 6.8.6 11.7-.9 15.5-4.7 2.1-2.3 3.3-4.7 3.7-7.4.2-1.7.2-2.4-.5-4.7a26.3 26.3 0 0 0-4-8l-2.2-3c-5.3-7.6-5.2-13.2.6-24.4 1-1.8 2.1-3.8 2.6-4.4l1.8-2.6c1.1-1.8 4.2-4.8 4.6-4.8.5 0 1.2 2 1.5 4 .4 2.8.2 9.8-.2 12.3-.1 1.2-.8 3.6-1.4 5.3l-.8 3.6c.4.7 1.7.6 2.3-.3 2.4-3.7 4.2-18 3-23.7-.6-3-3.1-4.7-7.4-5.2-5-.6-11.8 3.6-15.6 9.6-1.5 2.3-4 7.5-4.7 9.4-.7 2.4-1.2 6.5-1 9.1.1 2.3.9 5.2 1.5 5.5l.3.7a192 192 0 0 0 5.2 8.2c3.4 5.3 4.5 9 4 13.3-.4 3-1.4 5.3-3.1 7-1.5 1.7-3.1 2.4-5.8 2.7-2 .1-2.3 0-3-.7-1.3-1-1.7-2.6-1.7-5 0-2.3.3-3.9 1.3-6 .8-1.8 2.6-4.7 3-5 .6-.3.4-1.6-.3-2.3-2.8-2.6-7.3-2-9.7 1.2-3.5 4.8-3.1 12 .9 15.3Z"/><path fill="url(#b)" d="M60.4 8c.5-1 1-2.2.8-2.4-.6-1.5-4.4-1.5-6.5 0a42.3 42.3 0 0 0-10.3 14.6 82 82 0 0 0-5.6 13.6c-1.7 5-1.8 5.3-2.5 9.5-.9 4.3-1 6.8-.5 9.3l.7 3.7c0 .7.5 1.5.9 1.9 1.5 1.6 5.3 1.3 6-.4.4-1.5 5.3-10.9 7-14 2-3.2 5.6-8.6 5.7-8.5.1 0-.1 1-.5 2.2a27 27 0 0 0-.9 3l-1.1 3.8A51.5 51.5 0 0 0 51 60.2c.3 2.2 1.5 4.3 3 5 .7.3 1.8.4 3.2.4 2.8-.2 3.5-.8 8.1-6.8 7.4-9.7 11-15.3 10.3-16-.5-.6-1.3.2-4.3 4.4A156 156 0 0 1 60 61.5L58.4 63l.2-1.3c.5-3 2-8.3 3.7-13.5 3.3-10 4-14.5 2.5-16.9-.8-1.3-3.1-2-5.2-1.7-3 .3-3.9 1-8.7 8.4l-4.3 6.3A112.8 112.8 0 0 1 60.4 8Z"/><path fill="url(#c)" d="M82.3 25.6c1.4.4 1.5.4 3 .1 1.4-.3 1.4-.4 5.7-5.6 2.7-3.1 3-4 1.4-5.4-1.3-.8-5.6-1-7.5 0-1.6.8-2.4 1.8-3.3 4.7-1.6 4.6-1.5 5.7.7 6.2Zm11.9 19.5c-.9 0-2.4 1.4-5.7 5.3-5 5.9-6.2 7.2-6.6 6.6-1-1.5.6-10.6 3.5-19 1.6-4.6 1.6-5.4 0-6a9.7 9.7 0 0 0-5.5.2c-1.5.6-5.2 4.6-5.2 5.5l-1 2c-2.5 5.3-3.6 12.7-2.3 16 .3.8.8 2 1.3 2.4a8.4 8.4 0 0 0 4.5 2.8c3 .6 6.9-.4 8.3-2.2l7.2-9.9c1.4-2.1 2-3.7 1.5-3.7Z"/><path fill="url(#d)" d="M89.4 49.8c.1 1.7.4 2.6 1.2 4 2.2 3.5 6.8 5 9 2.7.5-.4 2.1-3.2 3.7-6.2 2.5-4.7 7.4-12.8 9.8-16 1.3-1.8 4.6-5.5 4.7-5.3.1.1-1.1 4-2.4 7a79.2 79.2 0 0 0-3.3 8.6 42 42 0 0 0-4.2 17.6 9.2 9.2 0 0 0 5.8 7.6c2.6.7 5.6-.7 3.4-1.6-.8-.4-.8-.5-.6-2.7 0-1.9 1-5.9 2-9.7a383 383 0 0 1 2.7-8.6 77 77 0 0 0 3-10.2c2-8.4 1.2-12-3.2-12.7-3.5-.8-5.5 1.1-14 13.8a315 315 0 0 0-8.6 13.6c-.6 0 1.3-5.7 2.7-8.8.5-1 1-2.2 1-2.5 0-.2 0-.5.2-.6.2 0 .5-.8.7-1.5l.6-1.8c.6-.2.4-2.5-.3-3a8 8 0 0 0-7.2-1c-1.5.7-4.5 4.5-4.5 5.6 0 .2-.3.6-.5.8-1 1.3-2 7.7-1.7 10.9Z"/><path fill="url(#e)" d="M138.2 47.8c3.5 0 6-3.1 8.3-10.5 1.4-4.3 1.3-5.2-.5-6.2-4-2-9-.5-12.4 3.8-.9 1-1.6 2.2-1.6 2.4a33 33 0 0 0-3.2 7c-2.7 8.8-1 14.2 4.9 16.2 3.2 1 6.1.5 9-1.6 1.1-.7 11.4-13.1 12.2-14.8.2-.3 0-.5-.4-.7-.7-.3-.9-.1-1.8 1a206 206 0 0 1-9.5 10.4 15 15 0 0 1-6.3 3.5c-.8.1-1 0-1.4-1.2-.4-1.1-.4-1.6.1-4.3 1-4.7 1.1-5 2.6-5Zm-.1-2.6c0-1 3.2-7.4 4.5-9l1.3-1.5-.2 1.8c-.3 2.2-1.6 5.5-3 7.1-.4.6-1.2 1.2-1.7 1.7l-1 .6v-.7Z"/><path fill="url(#f)" d="M168.9 64.5c1.4 0 1.7-.2 2.7-1 .6-.7 1.1-1.3 1.1-1.5 0-.1 0-.5.2-.8.3-.3.6-.1 1.6.5 2.4 1.6 8.3 4.3 10.6 4.7h3.3c3.1-.1 5.1-.9 7.1-3a57.2 57.2 0 0 0 10.7-20 77.6 77.6 0 0 0 5.5-27.2c0-5.2-.7-8-2.4-11.1a6.3 6.3 0 0 0-2.8-3c-3.3-1.8-5.7-1.4-8.4 1.3a46 46 0 0 0-7.8 12.1c-3.2 6.5-6.2 12.8-10 22.1l-4.1 9.5c-4 8.6-4.5 9.6-5 9.4-.2 0-.4.2-.5.8v-1c0-1.9 1.2-7.2 2-10l1.1-3.3c.4-1 .7-2.4 1-2.8a244 244 0 0 0 4-11.8l.4-1.5c0-.5.6-1.8 1-2.6l1.3-3.2c.5-1.9.8-2.5 1.5-4.1.8-1.7 3.2-8.7 4-11.3 1.2-3.9 0-5.7-3.4-5.7-2.8 0-4.9 2-8.4 8l-1.8 3.5-1.3 2.9-2.6 6-1.7 4.5a56.6 56.6 0 0 0-2.5 7.5 64 64 0 0 0-3.2 16.3c-.4 5.7.9 11.7 3.1 14.3.6.8 2.1 1.4 3.7 1.5Zm8.2-13c1.6-3.8 3.9-9.4 5-12.4 3.3-8.6 5.8-14.1 9.1-20.7 3.5-7 4.7-8.9 7.2-11.5 2.2-2.6 3.4-3.4 3.8-2.8.6.8.1 9-.6 12.6a183.6 183.6 0 0 1-10.5 35.8l-1.1 2.4-.5 1-1.1 2.2c-1.2 2.6-2 3.9-2.8 4.7-1 .7-.9.7-2.8.1-2.9-1-4.6-1.8-6.5-3.2l-2-1.4 2.8-6.8Z"/><path fill="url(#g)" d="M220.3 47.8c3.6 0 6-3.1 8.4-10.5 1.4-4.3 1.3-5.2-.6-6.2-4-2-9-.5-12.3 3.8-.9 1-1.6 2.2-1.6 2.4a33 33 0 0 0-3.2 7c-2.7 8.8-1 14.2 4.8 16.2 3.3 1 6.2.5 9-1.6 1.2-.7 11.4-13.1 12.3-14.8.2-.3 0-.5-.5-.7-.6-.3-.8-.1-1.8 1a206 206 0 0 1-9.4 10.4 15 15 0 0 1-6.4 3.5c-.8.1-1 0-1.3-1.2-.4-1.1-.4-1.6 0-4.3 1-4.7 1.2-5 2.6-5Zm0-2.6c0-1 3.2-7.4 4.5-9l1.2-1.5-.1 1.8c-.3 2.2-1.6 5.5-3 7.1l-1.8 1.7-.8.6v-.7Z"/><path fill="url(#h)" d="M250.8 41.3c1 0 1.4-1.7 1.6-5.8.1-3.4 0-4.2-.5-4.8-.8-1.2-2.9-2.2-5.3-2.3-1.7-.2-2.3 0-3.8.6-3.9 1.8-7 6.2-9 13-3.4 10.5-1.4 16.4 6 18.5a9 9 0 0 0 4.8 0c1.7-.4 4.2-2.2 5.5-3.8l1.9-2.3c3-3.1 8.5-10.7 8-11.3-.1-.5-1.7-.2-2 .3l-2.8 3.7c-5.2 7.3-12.3 13-13.1 10.3-.3-.9 0-5.6.7-8.1l.6-2.6c.9-3.8 3.4-10.7 4.6-12.5l.8-1.1.4 1.3c.2.7.4 2.4.3 3.9 0 2.5.3 3 1.3 3Z"/><path fill="url(#i)" d="M277.9 38.6c-.2-2.9-.7-4-2-5.4-.5-.3-.8-1-.8-1 0-.3-.7-.9-1.5-1.1-2.3-1.1-6-1-8.4 0-6 2.8-10.4 11.4-10 19.2 0 2.8.6 4 2.4 6a9 9 0 0 0 4.5 2.6c1.8.5 4.6.2 6-.4 5.6-2.8 10.3-12.5 9.8-20Zm-7.5 12.2c-1.1 1.6-3.6 4-4.6 4.6l-1 .4c-.3 0-.8-3.6-.7-5.2a24 24 0 0 1 3.4-10.8c0-1 4.5-6 5.2-5.8.2 0 .5.8 1 1.7 1.1 3.8-.4 10.8-3.3 15.1Z"/><path fill="url(#j)" d="M295.1 18.4c-1-2.2-5.5-3.2-8.5-1.8a20 20 0 0 0-8.2 12.9c-1.1 5.6 0 9.3 4.7 15.2l1.7 2.2-1 2.4c-1.6 3.1-2.2 4.6-2.7 6.7-.5 2.1-.6 5.7-.1 7.3a7 7 0 0 0 4 4 6 6 0 0 0 4.6-.3c1.8-1 2.6-2.3 13-19.8 1.3-2.1 2-3.8 1.4-3.8-.8 0-2.4 1.8-5.5 6.6l-5.5 8.3c-1 1.4-2.7 3.7-4 4.8-2 2.3-2.1 2.3-2.4 1.5a18.9 18.9 0 0 1 4.2-14.2c1-1.4 2-2.7 2-2.9l-1.3-3.2-1-3 .7-1.7c3.3-7.4 5.2-17.9 4-21.2Zm-5.3 14.7c-1.2 3.8-1.4 4-1.7 2-.6-3.8 0-8.8 1.8-12.6 1.2-2.7 1.6-2.4 1.6 1.1 0 3.1-.5 5.7-1.7 9.5Z"/><defs><linearGradient id="a" x1="0" x2="304.2" y1="35" y2="35" gradientUnits="userSpaceOnUse"><stop stop-color="#F22800"/><stop offset="1" stop-color="#C06"/></linearGradient><linearGradient id="b" x1="0" x2="304.2" y1="35" y2="35" gradientUnits="userSpaceOnUse"><stop stop-color="#F22800"/><stop offset="1" stop-color="#C06"/></linearGradient><linearGradient id="c" x1="0" x2="304.2" y1="35" y2="35" gradientUnits="userSpaceOnUse"><stop stop-color="#F22800"/><stop offset="1" stop-color="#C06"/></linearGradient><linearGradient id="d" x1="0" x2="304.2" y1="35" y2="35" gradientUnits="userSpaceOnUse"><stop stop-color="#F22800"/><stop offset="1" stop-color="#C06"/></linearGradient><linearGradient id="e" x1="0" x2="304.2" y1="35" y2="35" gradientUnits="userSpaceOnUse"><stop stop-color="#F22800"/><stop offset="1" stop-color="#C06"/></linearGradient><linearGradient id="f" x1="0" x2="304.2" y1="35" y2="35" gradientUnits="userSpaceOnUse"><stop stop-color="#F22800"/><stop offset="1" stop-color="#C06"/></linearGradient><linearGradient id="g" x1="0" x2="304.2" y1="35" y2="35" gradientUnits="userSpaceOnUse"><stop stop-color="#F22800"/><stop offset="1" stop-color="#C06"/></linearGradient><linearGradient id="h" x1="0" x2="304.2" y1="35" y2="35" gradientUnits="userSpaceOnUse"><stop stop-color="#F22800"/><stop offset="1" stop-color="#C06"/></linearGradient><linearGradient id="i" x1="0" x2="304.2" y1="35" y2="35" gradientUnits="userSpaceOnUse"><stop stop-color="#F22800"/><stop offset="1" stop-color="#C06"/></linearGradient><linearGradient id="j" x1="0" x2="304.2" y1="35" y2="35" gradientUnits="userSpaceOnUse"><stop stop-color="#F22800"/><stop offset="1" stop-color="#C06"/></linearGradient></defs></svg>